<?xml version="1.0" encoding="UTF-8" standalone="no"?>
<!-- Created with Inkscape (http://www.inkscape.org/) -->

<svg
   xmlns:dc="http://purl.org/dc/elements/1.1/"
   xmlns:cc="http://creativecommons.org/ns#"
   xmlns:rdf="http://www.w3.org/1999/02/22-rdf-syntax-ns#"
   xmlns:svg="http://www.w3.org/2000/svg"
   xmlns="http://www.w3.org/2000/svg"
   xmlns:sodipodi="http://sodipodi.sourceforge.net/DTD/sodipodi-0.dtd"
   xmlns:inkscape="http://www.inkscape.org/namespaces/inkscape"
   width="53.907799mm"
   height="51.888172mm"
   viewBox="0 0 53.907799 51.888172"
   version="1.1"
   id="svg1312"
   inkscape:version="0.92.4 (f8dce91, 2019-08-02)"
   sodipodi:docname="icon.svg">
  <defs
     id="defs1306" />
  <sodipodi:namedview
     id="base"
     pagecolor="#ffffff"
     bordercolor="#666666"
     borderopacity="1.0"
     inkscape:pageopacity="0.0"
     inkscape:pageshadow="2"
     inkscape:zoom="1.979899"
     inkscape:cx="58.667363"
     inkscape:cy="148.74672"
     inkscape:document-units="mm"
     inkscape:current-layer="layer1"
     showgrid="false"
     inkscape:window-width="1867"
     inkscape:window-height="1052"
     inkscape:window-x="3173"
     inkscape:window-y="440"
     inkscape:window-maximized="1" />
  <metadata
     id="metadata1309">
    <rdf:RDF>
      <cc:Work
         rdf:about="">
        <dc:format>image/svg+xml</dc:format>
        <dc:type
           rdf:resource="http://purl.org/dc/dcmitype/StillImage" />
        <dc:title></dc:title>
      </cc:Work>
    </rdf:RDF>
  </metadata>
  <g
     inkscape:label="Layer 1"
     inkscape:groupmode="layer"
     id="layer1"
     transform="translate(-26.336852,-20.835141)">
    <path
       id="path1285"
       style="fill:none;stroke:#000000;stroke-width:0.565;stroke-linecap:butt;stroke-linejoin:miter;stroke-miterlimit:4;stroke-dasharray:none;stroke-opacity:1"
       d="m 71.188041,71.201527 c 5.82261,-0.511617 6.744472,-7.080285 6.744472,-7.080285 l 2.00451,-28.798281 c 0.33409,-6.347679 -2.760472,-7.419124 -2.760472,-7.419124 m -48.96045,18.742279 43.85714,-0.25163 m -26.2228,15.5709 5.76967,-0.0619 m -5.34833,-2.57102 5.76966,-0.0619 m -5.39272,-2.655268 5.76967,-0.0619 m 0.99188,-24.443342 -1.33472,0.94493 m -3.62621,-1.09848 1.27567,0.99218 m -1.35836,2.44503 1.31111,-0.85043 m 1.13393,0.63783 -0.0709,1.51191 v 0 m 1.31113,-2.13792 1.13393,0.90949 m -2.13935,-4.70451 -0.0917,1.62505 m 11.38858,-11.26545 c 10.93907,-0.0904 10.12976,11.2259 10.12976,11.2259 l -0.3999,14.0489 -1.30121,12.844091 c -1.7663,11.25627 -10.67781,11.01802 -10.67781,11.01802 h -24.66305 c -9.70927,0 -8.78795,-10.205349 -8.78795,-10.205349 l 1.61252,-13.407552 0.73935,-12.62695 c 0.94494,-11.3393 12.42701,-12.33008 12.42701,-12.33008 z m 0.53454,0 c -0.17306,0 -0.34885,0 -0.52813,0.005 l -20.92122,0.56687 c 0,0 -11.44873,0.85687 -12.39366,12.19617 l -0.77887,12.75597 -1.6064,13.412441 c 0,0 -0.59778,6.630699 4.25593,9.20224 l 4.50109,2.273589 c 1.13593,0.559882 2.55767,0.902761 4.33676,0.902761 h 26.25058 c 0,0 9.7797,0.63923 10.67738,-11.017941 l 1.70119,-26.89294 c 0,0 0.51702,-4.437669 -1.83568,-7.733799 -1.08577,-1.186021 -8.00308,-4.193271 -8.00308,-4.193271 -1.37067,-0.88437 -3.2045,-1.46124 -5.65589,-1.47728 z"
       inkscape:connector-curvature="0"
       sodipodi:nodetypes="ccccccccccccccccccccccccccccccscccccccccccccsccccccc" />
  </g>
</svg>
