<?xml version="1.0" encoding="UTF-8" standalone="no"?>
<!-- Created with Inkscape (http://www.inkscape.org/) -->

<svg
   xmlns:dc="http://purl.org/dc/elements/1.1/"
   xmlns:cc="http://creativecommons.org/ns#"
   xmlns:rdf="http://www.w3.org/1999/02/22-rdf-syntax-ns#"
   xmlns:svg="http://www.w3.org/2000/svg"
   xmlns="http://www.w3.org/2000/svg"
   xmlns:sodipodi="http://sodipodi.sourceforge.net/DTD/sodipodi-0.dtd"
   xmlns:inkscape="http://www.inkscape.org/namespaces/inkscape"
   width="56.281315mm"
   height="43.610188mm"
   viewBox="0 0 56.281315 43.610188"
   version="1.1"
   id="svg987"
   inkscape:version="0.92.4 (f8dce91, 2019-08-02)"
   sodipodi:docname="icon new.svg">
  <defs
     id="defs981" />
  <sodipodi:namedview
     id="base"
     pagecolor="#ffffff"
     bordercolor="#666666"
     borderopacity="1.0"
     inkscape:pageopacity="0.0"
     inkscape:pageshadow="2"
     inkscape:zoom="0.35"
     inkscape:cx="-125.07029"
     inkscape:cy="-103.30134"
     inkscape:document-units="mm"
     inkscape:current-layer="layer1"
     showgrid="false"
     inkscape:window-width="1867"
     inkscape:window-height="1025"
     inkscape:window-x="53"
     inkscape:window-y="27"
     inkscape:window-maximized="1" />
  <metadata
     id="metadata984">
    <rdf:RDF>
      <cc:Work
         rdf:about="">
        <dc:format>image/svg+xml</dc:format>
        <dc:type
           rdf:resource="http://purl.org/dc/dcmitype/StillImage" />
        <dc:title></dc:title>
      </cc:Work>
    </rdf:RDF>
  </metadata>
  <g
     inkscape:label="Layer 1"
     inkscape:groupmode="layer"
     id="layer1"
     transform="translate(-20.240323,-77.891331)">
    <path
       inkscape:connector-curvature="0"
       style="opacity:1;fill:#000000;fill-opacity:1;stroke:none;stroke-width:0.49173731;stroke-linejoin:miter;stroke-miterlimit:4;stroke-dasharray:none;stroke-opacity:1"
       d="m 37.204319,94.063054 -1.1343,0.35864 2.79208,3.17809 1.16375,-0.324 z m -2.10375,0.66508 -1.1343,0.35811 2.73627,3.11506 1.16375,-0.32401 z m -2.14922,0.67851 -1.13379,0.35812 2.67995,3.05097 1.16375,-0.32401 z"
       id="rect874-7" />
    <path
       inkscape:connector-curvature="0"
       style="opacity:1;fill:#000000;fill-opacity:1;stroke:none;stroke-width:0.59456903;stroke-linejoin:miter;stroke-miterlimit:4;stroke-dasharray:none;stroke-opacity:1"
       d="m 60.843179,87.263984 -1.35289,1.43971 a 1.8308221,1.110305 0 0 1 1.04542,0.3359 l 1.31465,-1.39889 a 4.3821617,2.7167038 0 0 0 -1.00718,-0.37672 z m -3.78168,0.0832 a 4.3821617,2.7167038 0 0 0 -1.0051,0.45114 l 1.63504,1.37252 a 1.8308221,1.110305 0 0 1 1.01647,-0.44131 z m 6.30556,1.80971 -2.56522,0.10594 a 1.8308221,1.110305 0 0 1 0.22996,0.53588 1.8308221,1.110305 0 0 1 -0.11317,0.38034 l 2.52129,-0.10439 a 4.3821617,2.7167038 0 0 0 0.0372,-0.32297 4.3821617,2.7167038 0 0 0 -0.11007,-0.5948 z m -5.87199,0.24185 -2.76211,0.11368 a 4.3821617,2.7167038 0 0 0 -0.0202,0.23927 4.3821617,2.7167038 0 0 0 0.14366,0.67696 l 2.72594,-0.11214 a 1.8308221,1.110305 0 0 1 -0.21187,-0.5178 1.8308221,1.110305 0 0 1 0.12453,-0.39997 z m 3.22357,1.02009 a 1.8308221,1.110305 0 0 1 -1.00976,0.44597 l 1.50482,1.264 a 4.3821617,2.7167038 0 0 0 0.98909,-0.46405 z m -2.92385,0.0894 -1.3286,1.41387 a 4.3821617,2.7167038 0 0 0 1.02578,0.3576 l 1.31309,-1.39785 a 1.8308221,1.110305 0 0 1 -1.01027,-0.37362 z"
       id="rect920-5-3" />
    <path
       inkscape:connector-curvature="0"
       id="path967"
       style="fill:none;stroke:#000000;stroke-width:0.76499999;stroke-linecap:butt;stroke-linejoin:miter;stroke-miterlimit:4;stroke-dasharray:none;stroke-opacity:1"
       d="m 20.647559,101.75232 c -0.0473,1.27567 1.25204,2.87026 1.25204,2.87026 l 9.30767,10.27623 c 6.56733,7.44141 18.1901,3.33091 18.1901,3.33091 l 20.07998,-6.44922 c 5.10268,-1.9135 6.66184,-4.98456 6.66184,-4.98456 m -55.51526,-2.83482 c -0.0354,1.02763 0.8977,2.03162 0.8977,2.03162 l 9.4494,10.53609 c 6.80357,7.60677 18.75707,3.44903 18.75707,3.44903 l 20.17448,-6.37834 c 6.09486,-2.36236 6.23661,-5.05544 6.23661,-5.05544 m -55.46801,-17.127036 -0.0472,12.544076 m 55.20815,-8.811566 0.30711,13.394526 m -7.01619,-6.70908 0.35435,9.9455 m -20.5997,-3.68526 0.51972,10.13448 m -18.32435,-13.55009 0.13425,10.21918 m 7.06651,-31.969916 21.12421,22.482736 m -28.32497,-0.732 c 5.43108,6.38204 17.62427,3.50623 17.62427,3.50623 l 10.7007,-2.77423 9.61178,-3.5066 c 9.88898,-3.875406 6.1472,-8.418986 6.1472,-8.418986 l -12.02718,-12.42803 c -4.94448,-4.54359 -12.82893,-2.13816 -12.82893,-2.13816 l -12.02713,4.00904 -12.16077,2.80634 c -7.88445,2.93996 -4.81085,7.88445 -4.81085,7.88445 z" />
  </g>
</svg>
